<?xml version="1.0" encoding="UTF-8"?>
<svg viewBox="0 0 40 48" xmlns="http://www.w3.org/2000/svg">
 <defs>
  <filter id="a">
   <feGaussianBlur stdDeviation=".17322"/>
  </filter>
  <filter id="d" x="-.153" y="-.1739" width="1.306" height="1.3478">
   <feGaussianBlur stdDeviation=".25713"/>
  </filter>
  <filter id="c" x="-.21352" y="-.22465" width="1.427" height="1.4493">
   <feGaussianBlur stdDeviation=".25713"/>
  </filter>
  <filter id="b" x="-.13411" y="-.06147" width="1.2682" height="1.1229">
   <feGaussianBlur stdDeviation=".21961"/>
  </filter>
  <filter id="e" x="-.13567" y="-.6035" width="1.2713" height="2.207">
   <feGaussianBlur stdDeviation="1.22818"/>
  </filter>
 </defs>
 <g transform="matrix(1.1568 0 0 1.1073 -7.7288 -3.1222)">
  <path d="m33.179 39.802c0 1.3487-7.6473 2.3878-12.656 2.3878s-9.0699-1.0934-9.0699-2.4421 4.0607-2.4421 9.0699-2.4421 12.656 1.1476 12.656 2.4964z" fill-opacity=".7686" fill-rule="evenodd" filter="url(#e)"/>
  <path d="m13.6 40.158 12.311-0.46496-12.285-9.812-0.02523 10.277z" fill="#fff" stroke="#000"/>
  <path d="m11 27 2.6 13.158 0.51909-8.1579-3.1191-5z" fill="#fff" stroke="#000"/>
  <path d="m23.074 20.263-3.0737-8.2632 14 6 3 7-13.926-4.7368z" fill="#fff" stroke="#000"/>
  <path d="m24.074 19.168-10.074 14.832-3-7 9-15 4.0737 7.1684z" fill="#fff" stroke="#000"/>
  <path d="m24 19-10 15 11.909 5.6998 11.091-14.7-13-6z" fill="#fff" stroke="#000"/>
  <path d="m26.189 16.674 5.8105-11.674c4.3509-1.7848 7 1 7 4l-8 10c-2 1-4.0245 0.28837-4.8105-2.3263z" fill="#fff" stroke="#000"/>
  <path d="m19.29 17.095 1.4369 2.647-3.9311 6.1329-1.5338 2.696-0.55492-0.5932 0.66883-2.3572-1.8033-0.61407 1.3554-1.8543 1.5636 0.67381 2.2689-3.0251c0.22689-0.30251-0.68066-2.7226-0.68066-2.7226z" fill="#fff" stroke="#000" stroke-width=".7"/>
  <path d="m36.323 5.2461c-2.8979-0.97258-5.2599-0.21833-3.3346 3.1559-0.61514-2.9604 0.94716-3.5141 3.3346-3.1559z" fill="#fff" fill-opacity=".77778" filter="url(#d)"/>
  <path d="m35.728 9.8311c1.1808-0.43567 2.5401-0.6259 2.5009-2.7391 0 0 1.8459 2.9178-2.5009 2.7391z" fill="#fff" fill-opacity=".77778" filter="url(#c)"/>
  <path d="m30.309 9.1166-3.6918 7.3241 0.35728 1.1909s3.2155-7.9791 3.3346-8.515z" fill="#fff" fill-opacity=".64444" filter="url(#b)"/>
  <path d="m15.482 20.371-4.2278 6.6691 1.6077 4.3468c-2.0179-4.8767 1.146-7.5943 2.62-11.016z" fill="#fff" fill-opacity=".68" filter="url(#a)"/>
  <path d="m26.927 24.893 2.9928 2.3682-5.2018 6.9876-4.4913-2.0891 0.82518-1.1698 3.0708 1.2326 2.7994-4.063-1.5355-1.6523z" fill="#fff" stroke="#000" stroke-width=".7"/>
 </g>
</svg>
